<?xml version="1.0" encoding="UTF-8"?>
<svg xmlns="http://www.w3.org/2000/svg" xmlns:xlink="http://www.w3.org/1999/xlink" width="256pt" height="256pt" viewBox="0 0 256 256" version="1.1">
<g id="surface1">
<path style=" stroke:none;fill-rule:nonzero;fill:rgb(100%,96.470588%,96.470588%);fill-opacity:1;" d="M 125.800781 6.570312 L 130.199219 6.570312 C 142.148438 6.570312 151.835938 16.253906 151.835938 28.207031 L 151.835938 153.417969 C 151.835938 165.367188 142.148438 175.054688 130.199219 175.054688 L 125.800781 175.054688 C 113.851562 175.054688 104.164062 165.367188 104.164062 153.417969 L 104.164062 28.207031 C 104.164062 16.253906 113.851562 6.570312 125.800781 6.570312 Z M 125.800781 6.570312 "/>
<path style=" stroke:none;fill-rule:nonzero;fill:rgb(100%,96.470588%,96.470588%);fill-opacity:1;" d="M 184.03125 193.402344 C 184.03125 224.34375 158.945312 249.429688 128 249.429688 C 97.054688 249.429688 71.96875 224.34375 71.96875 193.402344 C 71.96875 162.457031 97.054688 137.371094 128 137.371094 C 158.945312 137.371094 184.03125 162.457031 184.03125 193.402344 Z M 184.03125 193.402344 "/>
<path style=" stroke:none;fill-rule:nonzero;fill:rgb(89.411765%,0%,7.45098%);fill-opacity:1;" d="M 127.234375 22.246094 L 128.765625 22.246094 C 132.917969 22.246094 136.289062 25.613281 136.289062 29.769531 L 136.289062 177.632812 C 136.289062 181.789062 132.917969 185.15625 128.765625 185.15625 L 127.234375 185.15625 C 123.082031 185.15625 119.710938 181.789062 119.710938 177.632812 L 119.710938 29.769531 C 119.710938 25.613281 123.082031 22.246094 127.234375 22.246094 Z M 127.234375 22.246094 "/>
<path style=" stroke:none;fill-rule:nonzero;fill:rgb(89.411765%,0%,7.45098%);fill-opacity:1;" d="M 166.789062 192.957031 C 166.789062 214.378906 149.421875 231.746094 128 231.746094 C 106.578125 231.746094 89.210938 214.378906 89.210938 192.957031 C 89.210938 171.535156 106.578125 154.167969 128 154.167969 C 149.421875 154.167969 166.789062 171.535156 166.789062 192.957031 Z M 166.789062 192.957031 "/>
<path style="fill:none;stroke-width:0.845233;stroke-linecap:butt;stroke-linejoin:miter;stroke:rgb(0%,0%,0%);stroke-opacity:1;stroke-miterlimit:4;" d="M 7.863281 0.433594 C 7.114013 0.433594 6.509765 1.037842 6.509765 1.787109 L 6.509765 8.947266 C 5.283447 9.523926 4.5 10.756348 4.498046 12.111328 C 4.498046 14.04541 6.065918 15.613281 8 15.613281 C 9.934082 15.613281 11.501953 14.04541 11.501953 12.111328 C 11.500732 10.755615 10.717041 9.522217 9.490234 8.945312 L 9.490234 1.787109 C 9.490234 1.037842 8.885986 0.433594 8.136718 0.433594 Z M 7.863281 0.433594 " transform="matrix(16,0,0,16,0.00000727218,-0.374997)"/>
<path style="fill:none;stroke-width:0.144871;stroke-linecap:butt;stroke-linejoin:miter;stroke:rgb(0%,0%,0%);stroke-opacity:1;stroke-miterlimit:4;" d="M 6.792011 1.542193 L 7.584126 1.542193 " transform="matrix(15.178897,0,0,15.178897,6.568827,6.571681)"/>
<path style="fill:none;stroke-width:0.144871;stroke-linecap:butt;stroke-linejoin:miter;stroke:rgb(0%,0%,0%);stroke-opacity:1;stroke-miterlimit:4;" d="M 6.792011 2.451144 L 7.584126 2.451144 " transform="matrix(15.178897,0,0,15.178897,6.568827,6.571681)"/>
<path style="fill:none;stroke-width:0.144871;stroke-linecap:butt;stroke-linejoin:miter;stroke:rgb(0%,0%,0%);stroke-opacity:1;stroke-miterlimit:4;" d="M 6.792011 3.360352 L 7.584126 3.360352 " transform="matrix(15.178897,0,0,15.178897,6.568827,6.571681)"/>
<path style="fill:none;stroke-width:0.144871;stroke-linecap:butt;stroke-linejoin:miter;stroke:rgb(0%,0%,0%);stroke-opacity:1;stroke-miterlimit:4;" d="M 6.792011 4.269561 L 7.584126 4.269561 " transform="matrix(15.178897,0,0,15.178897,6.568827,6.571681)"/>
<path style="fill:none;stroke-width:0.144871;stroke-linecap:butt;stroke-linejoin:miter;stroke:rgb(0%,0%,0%);stroke-opacity:1;stroke-miterlimit:4;" d="M 6.792011 5.178769 L 7.584126 5.178769 " transform="matrix(15.178897,0,0,15.178897,6.568827,6.571681)"/>
<path style="fill:none;stroke-width:0.144871;stroke-linecap:butt;stroke-linejoin:miter;stroke:rgb(0%,0%,0%);stroke-opacity:1;stroke-miterlimit:4;" d="M 6.792011 6.08772 L 7.584126 6.08772 " transform="matrix(15.178897,0,0,15.178897,6.568827,6.571681)"/>
<path style="fill:none;stroke-width:0.144871;stroke-linecap:butt;stroke-linejoin:miter;stroke:rgb(0%,0%,0%);stroke-opacity:1;stroke-miterlimit:4;" d="M 6.792011 6.996929 L 7.584126 6.996929 " transform="matrix(15.178897,0,0,15.178897,6.568827,6.571681)"/>
<path style="fill:none;stroke-width:0.144871;stroke-linecap:butt;stroke-linejoin:miter;stroke:rgb(0%,0%,0%);stroke-opacity:1;stroke-miterlimit:4;" d="M 6.792011 7.906137 L 7.584126 7.906137 " transform="matrix(15.178897,0,0,15.178897,6.568827,6.571681)"/>
</g>
</svg>
